<svg width="24" height="24" viewBox="0 0 24 24" fill="none" xmlns="http://www.w3.org/2000/svg">
<path d="M22.4914 7.59219C21.9176 6.22871 21.0949 5.00488 20.0463 3.95371C18.9977 2.90508 17.7738 2.07988 16.4078 1.50859C15.0113 0.92207 13.5285 0.625 12 0.625H11.9492C10.4106 0.632617 8.92014 0.937305 7.51858 1.53652C6.16526 2.11543 4.95158 2.93809 3.91311 3.98672C2.87463 5.03535 2.05959 6.2541 1.49592 7.6125C0.911936 9.01914 0.617405 10.5146 0.625022 12.0533C0.632639 13.8154 1.05412 15.5648 1.84377 17.1289V20.9883C1.84377 21.6332 2.36682 22.1562 3.01174 22.1562H6.87365C8.43772 22.9459 10.1871 23.3674 11.9492 23.375H12.0026C13.5235 23.375 14.9987 23.0805 16.3875 22.5041C17.7459 21.9379 18.9672 21.1254 20.0133 20.0869C21.0619 19.0484 21.8871 17.8348 22.4635 16.4814C23.0627 15.0799 23.3674 13.5895 23.375 12.0508C23.3826 10.5045 23.083 9.00391 22.4914 7.59219ZM18.6549 18.7133C16.875 20.4754 14.5137 21.4453 12 21.4453H11.9569C10.4258 21.4377 8.9049 21.0568 7.56174 20.3408L7.34846 20.2266H3.77346V16.6516L3.6592 16.4383C2.94319 15.0951 2.56233 13.5742 2.55471 12.0432C2.54455 9.51172 3.51194 7.13516 5.28674 5.34512C7.05901 3.55508 9.42795 2.56484 11.9594 2.55469H12.0026C13.2721 2.55469 14.5035 2.80098 15.6639 3.28848C16.7963 3.76328 17.8119 4.44629 18.6854 5.31973C19.5563 6.19062 20.2418 7.20879 20.7166 8.34121C21.2092 9.51426 21.4555 10.7584 21.4504 12.0432C21.4352 14.5721 20.4424 16.941 18.6549 18.7133Z" fill="white"/>
</svg>
